<svg width="741" height="741" viewBox="0 0 741 741" fill="none" xmlns="http://www.w3.org/2000/svg">
<g id="circular-dial">
<path id="Vector" d="M370.884 122.868C432.166 122.947 491.236 145.784 536.634 186.95C582.031 228.117 610.521 284.677 616.576 345.66C622.632 406.643 605.821 467.702 569.405 516.991C532.99 566.281 479.565 600.289 419.494 612.418C359.423 624.546 296.989 613.931 244.302 582.632C191.614 551.332 152.43 501.58 134.35 443.024C116.27 384.469 120.583 321.286 146.452 265.73C172.321 210.175 217.902 166.208 274.354 142.358C304.891 129.433 337.723 122.804 370.884 122.868M370.884 117.868C231.154 117.868 117.884 231.138 117.884 370.868C117.884 510.598 231.154 623.868 370.884 623.868C510.614 623.868 623.884 510.598 623.884 370.868C623.884 231.138 510.614 117.868 370.884 117.868Z" stroke="#B03CA3" stroke-width="2"/>
<g id="smollest">
<path id="Vector_2" d="M332.767 43.038L322.852 44.3432L330.684 103.83L340.598 102.525L332.767 43.038Z" fill="#FF1D7E"/>
<path id="Vector_3" d="M249.216 64.0843L239.977 67.9111L262.938 123.344L272.177 119.517L249.216 64.0843Z" fill="#FF1D7E"/>
<path id="Vector_4" d="M173.958 106.015L166.025 112.102L202.551 159.704L210.484 153.616L173.958 106.015Z" fill="#FF1D7E"/>
<path id="Vector_5" d="M112.118 166.007L106.03 173.941L153.631 210.467L159.719 202.533L112.118 166.007Z" fill="#FF1D7E"/>
<path id="Vector_6" d="M67.9137 239.962L64.0869 249.201L119.52 272.162L123.347 262.923L67.9137 239.962Z" fill="#FF1D7E"/>
<path id="Vector_7" d="M44.3547 322.829L43.0494 332.744L102.536 340.575L103.841 330.661L44.3547 322.829Z" fill="#FF1D7E"/>
<path id="Vector_8" d="M102.539 401.152L43.0528 408.984L44.3581 418.898L103.845 411.067L102.539 401.152Z" fill="#FF1D7E"/>
<path id="Vector_9" d="M119.528 469.576L64.0955 492.537L67.9223 501.776L123.355 478.815L119.528 469.576Z" fill="#FF1D7E"/>
<path id="Vector_10" d="M153.635 531.269L106.034 567.795L112.121 575.728L159.723 539.202L153.635 531.269Z" fill="#FF1D7E"/>
<path id="Vector_11" d="M202.55 582.036L166.024 629.637L173.958 635.725L210.484 588.124L202.55 582.036Z" fill="#FF1D7E"/>
<path id="Vector_12" d="M262.93 618.401L239.969 673.834L249.207 677.66L272.168 622.228L262.93 618.401Z" fill="#FF1D7E"/>
<path id="Vector_13" d="M330.685 637.91L322.854 697.396L332.768 698.702L340.6 639.215L330.685 637.91Z" fill="#FF1D7E"/>
<path id="Vector_14" d="M411.082 637.906L401.167 639.211L408.999 698.698L418.913 697.393L411.082 637.906Z" fill="#FF1D7E"/>
<path id="Vector_15" d="M475.27 617.317L466.07 621.117L488.87 676.317L498.07 672.517L475.27 617.317Z" fill="#FF1D7E"/>
<path id="Vector_16" d="M539.221 582.031L531.288 588.118L567.814 635.719L575.747 629.632L539.221 582.031Z" fill="#FF1D7E"/>
<path id="Vector_17" d="M588.141 531.262L582.053 539.195L629.654 575.721L635.742 567.787L588.141 531.262Z" fill="#FF1D7E"/>
<path id="Vector_18" d="M622.244 469.579L618.417 478.818L673.85 501.779L677.677 492.54L622.244 469.579Z" fill="#FF1D7E"/>
<path id="Vector_19" d="M639.23 401.161L637.924 411.076L697.411 418.907L698.716 408.993L639.23 401.161Z" fill="#FF1D7E"/>
<path id="Vector_20" d="M697.408 322.838L637.921 330.669L639.226 340.584L698.713 332.752L697.408 322.838Z" fill="#FF1D7E"/>
<path id="Vector_21" d="M673.841 239.956L618.409 262.917L622.235 272.155L677.668 249.194L673.841 239.956Z" fill="#FF1D7E"/>
<path id="Vector_22" d="M629.651 166.006L582.05 202.532L588.137 210.465L635.738 173.94L629.651 166.006Z" fill="#FF1D7E"/>
<path id="Vector_23" d="M567.804 106.013L531.278 153.614L539.212 159.702L575.738 112.101L567.804 106.013Z" fill="#FF1D7E"/>
<path id="Vector_24" d="M492.556 64.0706L469.595 119.503L478.834 123.33L501.795 67.8974L492.556 64.0706Z" fill="#FF1D7E"/>
<path id="Vector_25" d="M409.007 43.0348L401.176 102.521L411.09 103.827L418.922 44.3401L409.007 43.0348Z" fill="#FF1D7E"/>
</g>
<g id="mid">
<path id="Vector_26" d="M291.25 35.0373L271.932 40.2137L291.343 112.658L310.662 107.482L291.25 35.0373Z" fill="#FF70C4"/>
<path id="Vector_27" d="M134.001 119.841L119.858 133.983L172.891 187.016L187.034 172.874L134.001 119.841Z" fill="#FF70C4"/>
<path id="Vector_28" d="M40.2226 271.913L35.0463 291.232L107.491 310.643L112.667 291.325L40.2226 271.913Z" fill="#FF70C4"/>
<path id="Vector_29" d="M107.503 431.095L35.0588 450.507L40.2352 469.825L112.68 450.414L107.503 431.095Z" fill="#FF70C4"/>
<path id="Vector_30" d="M172.898 554.727L119.865 607.76L134.007 621.902L187.04 568.869L172.898 554.727Z" fill="#FF70C4"/>
<path id="Vector_31" d="M291.336 629.081L271.924 701.525L291.243 706.701L310.654 634.257L291.336 629.081Z" fill="#FF70C4"/>
<path id="Vector_32" d="M450.425 629.077L431.107 634.253L450.518 706.698L469.837 701.522L450.425 629.077Z" fill="#FF70C4"/>
<path id="Vector_33" d="M568.884 554.721L554.742 568.863L607.775 621.896L621.917 607.754L568.884 554.721Z" fill="#FF70C4"/>
<path id="Vector_34" d="M634.278 431.094L629.101 450.412L701.546 469.824L706.722 450.505L634.278 431.094Z" fill="#FF70C4"/>
<path id="Vector_35" d="M701.533 271.91L629.089 291.322L634.265 310.64L706.709 291.229L701.533 271.91Z" fill="#FF70C4"/>
<path id="Vector_36" d="M607.768 119.834L554.735 172.867L568.877 187.009L621.91 133.976L607.768 119.834Z" fill="#FF70C4"/>
<path id="Vector_37" d="M450.516 35.0357L431.104 107.48L450.423 112.657L469.834 40.2121L450.516 35.0357Z" fill="#FF70C4"/>
</g>
<g id="largest">
<path id="Vector_38" d="M378.884 0.868073H363.884V100.868H378.884V0.868073Z" fill="#B03CA3"/>
<path id="Vector_39" d="M192.806 46.4431L179.816 53.9431L229.816 140.546L242.806 133.046L192.806 46.4431Z" fill="#B03CA3"/>
<path id="Vector_40" d="M54.4552 178.944L46.9552 191.934L133.558 241.934L141.058 228.944L54.4552 178.944Z" fill="#B03CA3"/>
<path id="Vector_41" d="M100.884 362.868H0.883545V377.868H100.884V362.868Z" fill="#B03CA3"/>
<path id="Vector_42" d="M133.061 498.944L46.4586 548.944L53.9586 561.934L140.561 511.934L133.061 498.944Z" fill="#B03CA3"/>
<path id="Vector_43" d="M228.958 600.694L178.958 687.296L191.948 694.796L241.948 608.194L228.958 600.694Z" fill="#B03CA3"/>
<path id="Vector_44" d="M377.884 640.868H362.884V740.868H377.884V640.868Z" fill="#B03CA3"/>
<path id="Vector_45" d="M511.95 601.199L498.959 608.699L548.959 695.302L561.95 687.802L511.95 601.199Z" fill="#B03CA3"/>
<path id="Vector_46" d="M608.208 499.803L600.708 512.794L687.311 562.794L694.811 549.803L608.208 499.803Z" fill="#B03CA3"/>
<path id="Vector_47" d="M740.884 363.868H640.884V378.868H740.884V363.868Z" fill="#B03CA3"/>
<path id="Vector_48" d="M687.817 179.801L601.215 229.801L608.715 242.791L695.317 192.791L687.817 179.801Z" fill="#B03CA3"/>
<path id="Vector_49" d="M549.818 46.9409L499.818 133.543L512.808 141.043L562.808 54.4409L549.818 46.9409Z" fill="#B03CA3"/>
</g>
</g>
</svg>
